<svg width="24" height="24" viewBox="0 0 24 24" fill="none" xmlns="http://www.w3.org/2000/svg">
<mask id="mask0_0_21945" style="mask-type:alpha" maskUnits="userSpaceOnUse" x="-1" y="0" width="25" height="25">
<rect x="-0.290039" y="0.107422" width="24" height="24" fill="#D9D9D9"/>
</mask>
<g mask="url(#mask0_0_21945)">
<path d="M11.71 12.1074C10.61 12.1074 9.66829 11.7158 8.88496 10.9324C8.10163 10.1491 7.70996 9.20742 7.70996 8.10742C7.70996 7.00742 8.10163 6.06576 8.88496 5.28242C9.66829 4.49909 10.61 4.10742 11.71 4.10742C12.81 4.10742 13.7516 4.49909 14.535 5.28242C15.3183 6.06576 15.71 7.00742 15.71 8.10742C15.71 9.20742 15.3183 10.1491 14.535 10.9324C13.7516 11.7158 12.81 12.1074 11.71 12.1074ZM3.70996 18.1074V17.3074C3.70996 16.7408 3.85579 16.2199 4.14746 15.7449C4.43913 15.2699 4.82663 14.9074 5.30996 14.6574C6.34329 14.1408 7.39329 13.7533 8.45996 13.4949C9.52663 13.2366 10.61 13.1074 11.71 13.1074C12.81 13.1074 13.8933 13.2366 14.96 13.4949C16.0266 13.7533 17.0766 14.1408 18.11 14.6574C18.5933 14.9074 18.9808 15.2699 19.2725 15.7449C19.5641 16.2199 19.71 16.7408 19.71 17.3074V18.1074C19.71 18.6574 19.5141 19.1283 19.1225 19.5199C18.7308 19.9116 18.26 20.1074 17.71 20.1074H5.70996C5.15996 20.1074 4.68913 19.9116 4.29746 19.5199C3.90579 19.1283 3.70996 18.6574 3.70996 18.1074ZM5.70996 18.1074H17.71V17.3074C17.71 17.1241 17.6641 16.9574 17.5725 16.8074C17.4808 16.6574 17.36 16.5408 17.21 16.4574C16.31 16.0074 15.4016 15.6699 14.485 15.4449C13.5683 15.2199 12.6433 15.1074 11.71 15.1074C10.7766 15.1074 9.85163 15.2199 8.93496 15.4449C8.01829 15.6699 7.10996 16.0074 6.20996 16.4574C6.05996 16.5408 5.93913 16.6574 5.84746 16.8074C5.75579 16.9574 5.70996 17.1241 5.70996 17.3074V18.1074ZM11.71 10.1074C12.26 10.1074 12.7308 9.91159 13.1225 9.51992C13.5141 9.12825 13.71 8.65742 13.71 8.10742C13.71 7.55742 13.5141 7.08659 13.1225 6.69492C12.7308 6.30326 12.26 6.10742 11.71 6.10742C11.16 6.10742 10.6891 6.30326 10.2975 6.69492C9.90579 7.08659 9.70996 7.55742 9.70996 8.10742C9.70996 8.65742 9.90579 9.12825 10.2975 9.51992C10.6891 9.91159 11.16 10.1074 11.71 10.1074Z" fill="#1B2225"/>
</g>
</svg>
