<svg width="24" height="24" viewBox="0 0 24 24" fill="none" xmlns="http://www.w3.org/2000/svg">
<mask id="mask0_2027_1475" style="mask-type:alpha" maskUnits="userSpaceOnUse" x="0" y="0" width="24" height="24">
<rect width="24" height="24" fill="#D9D9D9"/>
</mask>
<g mask="url(#mask0_2027_1475)">
<path d="M7.63378 5.4876L6.74489 6.1896C5.39733 7.257 4.72267 7.7898 4.36178 8.5413C4.00089 9.2928 4 10.1604 4 11.8965V13.7793C4 17.1867 4 18.8913 5.04178 19.9488C5.88 20.802 7.12889 20.9685 9.33333 21V17.4054C9.33333 16.5666 9.33333 16.1472 9.46844 15.816C9.55789 15.5976 9.68894 15.3992 9.85411 15.2321C10.0193 15.0651 10.2154 14.9326 10.4311 14.8422C10.7573 14.7054 11.1716 14.7054 12 14.7054C12.8284 14.7054 13.2427 14.7054 13.5689 14.8422C13.7846 14.9326 13.9807 15.0651 14.1459 15.2321C14.3111 15.3992 14.4421 15.5976 14.5316 15.816C14.6667 16.1472 14.6667 16.5666 14.6667 17.4054V21C16.8711 20.9676 18.12 20.802 18.9582 19.9488C20 18.8913 20 17.1876 20 13.7802V11.8974C20 10.1604 20 9.2928 19.6382 8.5413C19.2764 7.7898 18.6027 7.257 17.2551 6.1914L16.3662 5.4885C14.2684 3.828 13.2196 3 12 3C10.7804 3 9.73156 3.8289 7.63378 5.4876Z" stroke="#1B2225" stroke-width="2" stroke-linecap="round" stroke-linejoin="round"/>
</g>
</svg>
