<svg width="24" height="24" viewBox="0 0 24 24" fill="none" xmlns="http://www.w3.org/2000/svg">
<mask id="mask0_0_21934" style="mask-type:alpha" maskUnits="userSpaceOnUse" x="0" y="0" width="24" height="24">
<rect width="24" height="24" fill="#D9D9D9"/>
</mask>
<g mask="url(#mask0_0_21934)">
<path d="M18.2308 5H5.76923C5.03479 5 4.33042 5.28734 3.81109 5.7988C3.29176 6.31026 3 7.00396 3 7.72727V14.5455C3 15.2688 3.29176 15.9625 3.81109 16.4739C4.33042 16.9854 5.03479 17.2727 5.76923 17.2727H13.3846L17.5385 20V17.2727H18.2308C18.9652 17.2727 19.6696 16.9854 20.1889 16.4739C20.7082 15.9625 21 15.2688 21 14.5455V7.72727C21 7.00396 20.7082 6.31026 20.1889 5.7988C19.6696 5.28734 18.9652 5 18.2308 5Z" stroke="#1B2225" stroke-width="2" stroke-linecap="round" stroke-linejoin="round"/>
<path d="M8.25 11.75C8.25 11.9489 8.17098 12.1397 8.03033 12.2803C7.88968 12.421 7.69891 12.5 7.5 12.5C7.30109 12.5 7.11032 12.421 6.96967 12.2803C6.82902 12.1397 6.75 11.9489 6.75 11.75C6.75 11.5511 6.82902 11.3603 6.96967 11.2197C7.11032 11.079 7.30109 11 7.5 11C7.69891 11 7.88968 11.079 8.03033 11.2197C8.17098 11.3603 8.25 11.5511 8.25 11.75ZM12.75 11.75C12.75 11.9489 12.671 12.1397 12.5303 12.2803C12.3897 12.421 12.1989 12.5 12 12.5C11.8011 12.5 11.6103 12.421 11.4697 12.2803C11.329 12.1397 11.25 11.9489 11.25 11.75C11.25 11.5511 11.329 11.3603 11.4697 11.2197C11.6103 11.079 11.8011 11 12 11C12.1989 11 12.3897 11.079 12.5303 11.2197C12.671 11.3603 12.75 11.5511 12.75 11.75ZM17.25 11.75C17.25 11.9489 17.171 12.1397 17.0303 12.2803C16.8897 12.421 16.6989 12.5 16.5 12.5C16.3011 12.5 16.1103 12.421 15.9697 12.2803C15.829 12.1397 15.75 11.9489 15.75 11.75C15.75 11.5511 15.829 11.3603 15.9697 11.2197C16.1103 11.079 16.3011 11 16.5 11C16.6989 11 16.8897 11.079 17.0303 11.2197C17.171 11.3603 17.25 11.5511 17.25 11.75Z" stroke="#1B2225" stroke-width="2" stroke-linecap="round" stroke-linejoin="round"/>
</g>
</svg>
